<svg viewBox="0 0 422.12 724" xmlns="http://www.w3.org/2000/svg" id="Layer_1"><title>b-corporation-logo</title><path transform="translate(-163.94 -13)" d="M430.66,337.21v-.68c22.23-9.25,35.69-28.78,35.69-54.81,0-24-12.45-41.47-28.29-51.06-14.48-8.91-42.43-8.91-63.66-8.91H287.17V466.39H403.38c47.82,0,73.08-34.27,73.08-70.24C476.46,366,460.31,343.38,430.66,337.21Zm-111.51-88h64c27.63,0,51.19,4.79,51.19,38.71,0,25.71-14.83,39.07-51.19,39.07h-64ZM399.34,439H319.15V354.35h73.1c27,0,52.22,8.9,52.22,40.77C444.47,421.84,427,439,399.34,439Zm-24-309.24c-116.36,0-210.69,96-210.69,214.34S259,558.4,375.33,558.4s210.73-96,210.73-214.33S491.72,129.73,375.33,129.73Zm0,400.53c-101,0-182.91-83.31-182.91-186.09s81.89-186.06,182.91-186.06,182.94,83.3,182.94,186.06S476.39,530.26,375.33,530.26ZM165.07,631.74H585.63V603.62H165.07Zm412.53-70a12.34,12.34,0,0,0-4.92-1,12.15,12.15,0,0,0-4.86,1,12.6,12.6,0,0,0-4,2.67,13.38,13.38,0,0,0-2.73,4,12.07,12.07,0,0,0-1,5.07,11.88,11.88,0,0,0,1,5.06,12.72,12.72,0,0,0,2.73,4.07,12.21,12.21,0,0,0,4,2.7,12.49,12.49,0,0,0,4.86,1,12.68,12.68,0,0,0,4.92-1,12.08,12.08,0,0,0,3.95-2.7,12.4,12.4,0,0,0,2.73-4.07,12.2,12.2,0,0,0,1-5.06,12.41,12.41,0,0,0-1-5.07,13,13,0,0,0-2.73-4A12.47,12.47,0,0,0,577.6,561.71ZM583,573.46a11.32,11.32,0,0,1-.81,4.31,10.94,10.94,0,0,1-2.16,3.49,10.7,10.7,0,0,1-3.29,2.31,9.91,9.91,0,0,1-4.08.8,9.88,9.88,0,0,1-7.38-3.11,9.69,9.69,0,0,1-2.16-3.49,11.32,11.32,0,0,1-.8-4.31,11.09,11.09,0,0,1,.8-4.28,9.66,9.66,0,0,1,2.16-3.46,10.25,10.25,0,0,1,7.38-3.12,10.26,10.26,0,0,1,4.08.84,11.14,11.14,0,0,1,3.29,2.28,10.9,10.9,0,0,1,2.16,3.46A11.1,11.1,0,0,1,583,573.46Zm-5.5-.2a3.79,3.79,0,0,0,1.11-3,4,4,0,0,0-1.28-3.22,6,6,0,0,0-3.87-1.05h-5.7v14.92h2.31v-6.43h2.4l4,6.43h2.43l-4.21-6.56A5.3,5.3,0,0,0,577.52,573.26Zm-5-.6h-2.38v-4.75h3c.4,0,.77,0,1.16.06a3.19,3.19,0,0,1,1,.36,1.79,1.79,0,0,1,.74.68,2,2,0,0,1,.28,1.18,2.51,2.51,0,0,1-.31,1.39,2,2,0,0,1-.86.74,3.41,3.41,0,0,1-1.21.28C573.48,572.63,573,572.66,572.47,572.66ZM173.86,82.35a33.67,33.67,0,0,0,11.77,8.5,38.37,38.37,0,0,0,15.71,3.09,36.82,36.82,0,0,0,12.89-2.17,29.67,29.67,0,0,0,10.22-6.29,31.32,31.32,0,0,0,7-10,39.84,39.84,0,0,0,3.29-13.11H218.59q-1,7.8-5.27,12.57t-12,4.77a19.26,19.26,0,0,1-9.59-2.22,18.41,18.41,0,0,1-6.39-5.91,26,26,0,0,1-3.57-8.29,40.31,40.31,0,0,1-1.11-9.48A43.38,43.38,0,0,1,181.79,44a26.46,26.46,0,0,1,3.57-8.5,18.09,18.09,0,0,1,6.39-6,19.29,19.29,0,0,1,9.59-2.22,17.14,17.14,0,0,1,11,3.9A16.94,16.94,0,0,1,216,35.49,14,14,0,0,1,218,40.85h16.19a31.41,31.41,0,0,0-3.62-11.92,29,29,0,0,0-7.3-8.72,32.07,32.07,0,0,0-10-5.37,40.14,40.14,0,0,0-27.58,1.3,33.71,33.71,0,0,0-11.77,8.67,38.84,38.84,0,0,0-7.35,12.94A49.05,49.05,0,0,0,164,53.85a47.27,47.27,0,0,0,2.56,15.76A37.9,37.9,0,0,0,173.86,82.35Zm71.44,3.13a24.21,24.21,0,0,0,8.84,6,30.92,30.92,0,0,0,11.71,2.11q9.38,0,16-4.33t9.8-14.41H278.32a9.66,9.66,0,0,1-4.05,4.93,13.34,13.34,0,0,1-7.88,2.33q-6.39,0-9.8-3.36t-3.73-10.84h39.72a40.09,40.09,0,0,0-1.06-12.45,30.67,30.67,0,0,0-4.84-10.62,24.67,24.67,0,0,0-8.58-7.43,25.84,25.84,0,0,0-12.25-2.76A28.07,28.07,0,0,0,254.4,37a26.89,26.89,0,0,0-14.64,15.6,33.14,33.14,0,0,0-2,11.7,34.74,34.74,0,0,0,2,11.92A26.91,26.91,0,0,0,245.3,85.48Zm8.25-31a11.3,11.3,0,0,1,5.86-7,13,13,0,0,1,6-1.24q5.54,0,8.25,3t3.79,8.88H252.86A18,18,0,0,1,253.55,54.5Zm61,12.46a31.82,31.82,0,0,1,.74-7,15.58,15.58,0,0,1,2.51-5.69,12.15,12.15,0,0,1,4.63-3.85,15.87,15.87,0,0,1,7-1.41,26.08,26.08,0,0,1,2.87.17c1,.11,1.85.23,2.56.37V35.22a11.36,11.36,0,0,0-3.3-.55,17.74,17.74,0,0,0-5.54.87A20.36,20.36,0,0,0,321,38a19.4,19.4,0,0,0-7,8.62h-.21V36.19H299.4v56h15.13V67Zm34.62,12.57a14.4,14.4,0,0,0,1.38,6.82,10,10,0,0,0,3.78,4,15.39,15.39,0,0,0,5.54,1.89,42.78,42.78,0,0,0,6.65.49c1.5,0,3,0,4.58-.11a34.59,34.59,0,0,0,4.27-.43V80.29a22,22,0,0,1-2.24.32,24.14,24.14,0,0,1-2.45.11c-2.55,0-4.26-.43-5.11-1.3s-1.28-2.6-1.28-5.2V46.48h11.08V36.19H364.27V19.4H349.15V36.19H340V46.48h9.16V79.53Zm50.13-43.34H384.16v56h15.12Zm0-21.35H384.16V27.52h15.12Zm15.05,77.37h15.13V46.48h10.43V36.19H429.46V32.83c0-2.31.44-4,1.33-4.93s2.36-1.46,4.42-1.46a43,43,0,0,1,5.53.33V15.28c-1.27-.07-2.59-.17-3.93-.27s-2.71-.17-4.05-.17q-9.27,0-13.85,4.77a17,17,0,0,0-4.58,12.24v4.34h-9.05V46.48h9.05V92.21Zm50.94-77.37H450.14V27.52h15.13Zm0,21.35H450.14v56h15.13Zm12.57,49.29a24.21,24.21,0,0,0,8.84,6,30.92,30.92,0,0,0,11.71,2.11,28.55,28.55,0,0,0,16-4.33q6.58-4.34,9.79-14.41H510.85a9.59,9.59,0,0,1-4,4.93,13.35,13.35,0,0,1-7.89,2.33q-6.37,0-9.8-3.36T485.4,67.93h39.73a40.39,40.39,0,0,0-1.07-12.45,30.67,30.67,0,0,0-4.84-10.62,24.67,24.67,0,0,0-8.58-7.43,25.84,25.84,0,0,0-12.25-2.76A28,28,0,0,0,486.94,37a27,27,0,0,0-8.89,6.23,27.59,27.59,0,0,0-5.76,9.37,33.36,33.36,0,0,0-2,11.7,34.74,34.74,0,0,0,2,11.92A27.06,27.06,0,0,0,477.84,85.48Zm8.25-31a11.3,11.3,0,0,1,5.86-7,13.11,13.11,0,0,1,6-1.24q5.53,0,8.25,3c1.81,2,3.08,5,3.78,8.88H485.4A18,18,0,0,1,486.09,54.5Zm49.64,30.07a21.84,21.84,0,0,0,7.72,6.6,25.09,25.09,0,0,0,20.61.44,15.71,15.71,0,0,0,7-6.56h.21v7.16h14.38V14.84H570.5V43h-.21a16.3,16.3,0,0,0-7-6.22A21.15,21.15,0,0,0,554,34.67a22.3,22.3,0,0,0-10.66,2.44,23,23,0,0,0-7.61,6.44,28.31,28.31,0,0,0-4.58,9.27,38.37,38.37,0,0,0-1.54,10.89A40.89,40.89,0,0,0,531.15,75,29.79,29.79,0,0,0,535.73,84.57Zm9.69-27.09a17.94,17.94,0,0,1,2.23-5.69,12,12,0,0,1,4.11-4A12.12,12.12,0,0,1,558,46.26a11.55,11.55,0,0,1,6.18,1.52,12.54,12.54,0,0,1,4,3.95,16.61,16.61,0,0,1,2.19,5.64A34.46,34.46,0,0,1,571,64a35.1,35.1,0,0,1-.64,6.71,18.62,18.62,0,0,1-2.13,5.8,11.5,11.5,0,0,1-4,4.06A11.78,11.78,0,0,1,558,82.13a11,11,0,0,1-6-1.57,13.3,13.3,0,0,1-4.16-4.12,18,18,0,0,1-2.4-5.8,29.32,29.32,0,0,1-.74-6.5A30.83,30.83,0,0,1,545.42,57.48ZM190.25,714.34c-10.57,0-14.55-9.16-14.55-18.23,0-9.54,4-18.7,14.55-18.7,5.86,0,10.95,4.12,11.72,9.54h11.39c-1.43-12.59-11.33-19.61-23.11-19.61-16.56,0-26.31,12.59-26.31,28.77,0,15.71,9.75,28.3,26.31,28.3,13.14,0,22.37-8.69,23.57-22.28H202.4C201.52,709.3,197.45,714.34,190.25,714.34Zm48.16-31.74c-12.16,0-20,8.23-20,20.83s7.87,20.75,20,20.75,20.1-8.24,20.1-20.75S250.63,682.6,238.41,682.6Zm0,33.41c-7.2,0-9.39-6.33-9.39-12.58s2.19-12.67,9.39-12.67,9.44,6.34,9.44,12.67S245.68,716,238.41,716Zm36.94-25.09h-.16V683.6H265.08V723h10.64V705.27c0-6.94,2.7-12.66,10.51-12.66a19.29,19.29,0,0,1,3.83.37V682.91a7.89,7.89,0,0,0-2.33-.38A13.71,13.71,0,0,0,275.35,690.92ZM316,682.6c-4.79,0-9,1.91-11.54,6.1h-.14v-5H294.22V737h10.64V718.23H305a13.68,13.68,0,0,0,11.61,5.95c11.34,0,17-9.84,17-20.37C333.66,692.6,328.2,682.6,316,682.6ZM313.79,716c-6.9,0-9.3-6.1-9.3-12.5s2.25-12.75,9.22-12.75,9.3,6.48,9.3,12.75S320.77,716,313.79,716ZM357,682.6c-12.14,0-20,8.23-20,20.83s7.87,20.75,20,20.75,20.12-8.24,20.12-20.75S369.26,682.6,357,682.6ZM357,716c-7.19,0-9.37-6.33-9.37-12.58s2.18-12.67,9.37-12.67,9.46,6.34,9.46,12.67S364.31,716,357,716Zm37-25.09h-.16V683.6H383.72V723h10.65V705.27c0-6.94,2.7-12.66,10.5-12.66a19.14,19.14,0,0,1,3.83.37V682.91a7.79,7.79,0,0,0-2.33-.38A13.68,13.68,0,0,0,394,690.92Zm53.08,2.89c0-9.45-9.32-11.21-17-11.21-8.7,0-17.62,3-18.22,13.2h10.65c.38-4.28,3-5.95,7.06-5.95,3.73,0,6.9.69,6.9,5.33,0,4.43-6.08,4.2-12.61,5.2s-13.2,3-13.2,12c0,8.1,5.85,11.83,13.2,11.83,4.73,0,9.68-1.29,13-4.89a17.57,17.57,0,0,0,.76,3.83h10.82c-1-1.61-1.36-5.19-1.36-8.78V693.81Zm-10.65,14c0,2.37-.31,9.08-8.63,9.08-3.45,0-6.53-1-6.53-5s3-5.13,6.3-5.8,7.05-.68,8.86-2.29Zm32.16-36H458v11.83H451.5v7.25H458v23.26c0,7.86,5.7,9.39,12.21,9.39a39.8,39.8,0,0,0,6.23-.38v-8.47a16.78,16.78,0,0,1-3.31.3c-3.59,0-4.49-.91-4.49-4.59V690.91h7.8v-7.24h-7.8V671.84Zm15.83,5.72h10.65v-8.93H484.43Zm0,45.55h10.65V683.67H484.43Zm37.82-40.51c-12.14,0-20,8.23-20,20.83s7.87,20.75,20,20.75,20.12-8.24,20.12-20.75S534.48,682.6,522.25,682.6Zm0,33.41c-7.2,0-9.37-6.33-9.37-12.58s2.17-12.67,9.37-12.67,9.46,6.34,9.46,12.67S529.54,716,522.25,716Zm49.21-33.41a13.79,13.79,0,0,0-11.86,6.56h-.22v-5.49H549.25v39.44H559.9V702.44c0-8,2.47-11.3,8.26-11.3,4.94,0,6.82,3.21,6.82,9.69v22.28h10.65V698.85C585.63,689.09,582.78,682.6,571.46,682.6Z"></path></svg>